<?xml version="1.0" encoding="utf-8"?>
<!-- Generator: Adobe Illustrator 26.3.1, SVG Export Plug-In . SVG Version: 6.00 Build 0)  -->
<svg version="1.1" id="Calque_1" xmlns="http://www.w3.org/2000/svg" xmlns:xlink="http://www.w3.org/1999/xlink" x="0px" y="0px"
	 viewBox="0 0 100 100" style="enable-background:new 0 0 100 100;" xml:space="preserve">
<style type="text/css">
	.st0{display:none;}
	.st1{display:inline;}
	.st2{fill:none;}
	.st3{fill:#FFFFFF;}
</style>
<g id="Calque_2_00000142873588678404792290000015482656855858766732_" class="st0">
	<rect class="st1" width="100" height="100"/>
</g>
<g>
	<path id="SVGID_x5F_1_x5F__00000135671589094297851730000017671003756511560072_" class="st2" d="M73.3,36.6
		c7.4,12.9,3,29.3-9.8,36.7s-29.3,3-36.7-9.8s-3-29.3,9.8-36.7S65.9,23.7,73.3,36.6z"/>
	<path class="st3" d="M77.6,59.5c-0.6-0.1-1.1-0.1-1.5,0.1s-0.7,0.6-0.9,1.2c-0.1,0.3-0.2,0.5-0.2,0.8c0,0.2,0,0.4,0.1,0.6
		c0.1,0.2,0.1,0.3,0.3,0.5c0.1,0.1,0.3,0.2,0.4,0.3c0.3,0.1,0.6,0.1,0.9,0c0.2-0.1,0.5-0.4,0.7-0.6c0.2-0.3,0.4-0.6,0.7-0.9
		c0.2-0.3,0.5-0.6,0.7-0.9c0.3-0.3,0.6-0.5,0.9-0.6c0.3-0.1,0.7-0.1,1.2,0.1c0.6,0.2,0.9,0.6,1.1,1.2s0.1,1.2-0.2,2
		c-0.3,0.7-0.7,1.2-1.2,1.6c-0.5,0.3-1.2,0.4-2,0.1l0.3-0.8c0.5,0.1,1,0.1,1.3-0.1c0.3-0.2,0.6-0.6,0.8-1.1c0.2-0.5,0.3-0.9,0.2-1.3
		c-0.1-0.3-0.3-0.6-0.7-0.7c-0.3-0.1-0.6-0.1-0.8,0c-0.2,0.1-0.5,0.4-0.7,0.6c-0.2,0.3-0.5,0.6-0.7,0.9s-0.5,0.6-0.8,0.9
		c-0.3,0.3-0.6,0.4-0.9,0.6c-0.3,0.1-0.7,0.1-1.1-0.1c-0.3-0.1-0.6-0.3-0.8-0.6c-0.2-0.2-0.3-0.5-0.4-0.8c-0.1-0.3-0.1-0.6,0-1
		c0.1-0.4,0.2-0.7,0.3-1.1c0.2-0.4,0.4-0.7,0.6-1c0.2-0.3,0.5-0.4,0.8-0.6c0.3-0.1,0.6-0.2,0.9-0.2c0.3,0,0.7,0.1,1,0.2L77.6,59.5z"
		/>
	<path class="st3" d="M73.7,71.4c0.5,0.2,1,0.3,1.5,0.2c0.5-0.1,0.9-0.4,1.2-0.8c0.3-0.3,0.4-0.7,0.5-1c0.1-0.4,0-0.7-0.1-1
		c-0.1-0.3-0.3-0.7-0.5-1c-0.2-0.3-0.5-0.6-0.8-0.8c-0.3-0.2-0.6-0.4-1-0.6s-0.7-0.2-1-0.3c-0.3,0-0.7,0-1,0.2
		c-0.3,0.1-0.6,0.4-0.9,0.7c-0.4,0.5-0.6,1-0.5,1.5c0,0.5,0.3,1,0.7,1.4l-0.6,0.7c-0.3-0.3-0.5-0.6-0.6-1c-0.2-0.3-0.3-0.7-0.3-1
		c0-0.3,0-0.7,0.1-1.1c0.1-0.4,0.3-0.7,0.6-1.1c0.4-0.5,0.7-0.8,1.2-1c0.4-0.2,0.8-0.3,1.3-0.3c0.4,0,0.9,0.1,1.3,0.3
		c0.4,0.2,0.9,0.4,1.3,0.8c0.4,0.3,0.7,0.7,1,1.1c0.3,0.4,0.5,0.8,0.6,1.3c0.1,0.4,0.1,0.9,0,1.3c-0.1,0.5-0.3,0.9-0.6,1.3
		c-0.5,0.7-1.1,1.1-1.7,1.2c-0.6,0.2-1.3,0-2.1-0.4L73.7,71.4z"/>
	<path class="st3" d="M67.2,70.6l0.7-0.5l4.5,5.7l-0.7,0.5l-0.9-1.1l0,0c0.2,0.6,0.2,1.1,0.1,1.5c-0.1,0.4-0.5,0.8-0.9,1.2l-0.6-0.7
		c0.4-0.3,0.6-0.6,0.8-0.9c0.1-0.3,0.2-0.6,0.2-1c0-0.3-0.1-0.7-0.3-1c-0.2-0.3-0.4-0.7-0.6-1L67.2,70.6z"/>
	<path class="st3" d="M61.7,74c0.4-0.2,0.9-0.3,1.3-0.3c0.4,0,0.9,0,1.3,0.2c0.4,0.2,0.8,0.4,1.2,0.8c0.4,0.3,0.7,0.8,1,1.4
		c0.2,0.5,0.4,1,0.5,1.4c0.1,0.5,0.1,0.9,0,1.4c-0.1,0.4-0.3,0.8-0.6,1.2c-0.3,0.4-0.7,0.7-1.2,0.9c-0.5,0.2-1,0.4-1.5,0.4
		c-0.5,0-0.9-0.1-1.3-0.3c-0.4-0.2-0.8-0.5-1.1-0.8c-0.3-0.4-0.6-0.8-0.8-1.3c-0.3-0.5-0.4-1-0.5-1.5c-0.1-0.5,0-0.9,0.1-1.4
		c0.1-0.4,0.3-0.8,0.6-1.2C60.8,74.5,61.2,74.2,61.7,74z M61.1,78.5c0.2,0.4,0.4,0.7,0.7,1c0.2,0.3,0.5,0.5,0.8,0.7
		c0.3,0.2,0.6,0.2,1,0.3c0.3,0,0.7-0.1,1.1-0.3c0.4-0.2,0.7-0.4,0.9-0.7c0.2-0.3,0.3-0.6,0.4-1c0.1-0.3,0-0.7,0-1.1
		c-0.1-0.4-0.2-0.7-0.4-1.1c-0.2-0.4-0.4-0.8-0.7-1c-0.3-0.3-0.5-0.5-0.8-0.7c-0.3-0.2-0.6-0.2-1-0.2c-0.3,0-0.7,0.1-1.1,0.3
		c-0.4,0.2-0.7,0.4-0.9,0.7c-0.2,0.3-0.3,0.6-0.4,1c0,0.3,0,0.7,0,1.1C60.8,77.8,61,78.2,61.1,78.5z"/>
	<path class="st3" d="M57.1,75.9l2.5,9.8l-0.8,0.2l-2.5-9.8L57.1,75.9z"/>
	<path class="st3" d="M54,76.6l1.3,10l-0.8,0.1l-1.3-10L54,76.6z"/>
	<path class="st3" d="M39.4,85.5l-0.8-0.2l2.3-9.8l0.8,0.2l-0.3,1.2l0,0c0.2-0.2,0.4-0.4,0.6-0.5c0.2-0.1,0.5-0.2,0.7-0.3
		C43,76,43.2,76,43.5,76c0.3,0,0.5,0,0.7,0.1c0.6,0.1,1,0.3,1.4,0.6c0.4,0.3,0.6,0.6,0.8,1c0.2,0.4,0.3,0.8,0.3,1.3
		c0,0.5,0,1-0.2,1.5c-0.1,0.5-0.3,0.9-0.5,1.4c-0.2,0.4-0.5,0.8-0.9,1.1s-0.7,0.5-1.2,0.6c-0.4,0.1-0.9,0.1-1.5,0
		c-0.5-0.1-1-0.3-1.4-0.7c-0.4-0.3-0.7-0.7-0.9-1.2L39.4,85.5z M40.8,79.2c-0.1,0.4-0.1,0.8-0.1,1.2c0,0.4,0.1,0.7,0.3,1
		c0.1,0.3,0.3,0.6,0.6,0.8c0.3,0.2,0.6,0.4,0.9,0.5c0.4,0.1,0.8,0.1,1.2,0c0.3-0.1,0.7-0.3,0.9-0.5c0.3-0.2,0.5-0.5,0.7-0.9
		s0.3-0.8,0.4-1.2c0.1-0.4,0.1-0.9,0.1-1.2c0-0.4-0.1-0.7-0.3-1c-0.2-0.3-0.4-0.5-0.6-0.7c-0.3-0.2-0.6-0.3-0.9-0.4
		c-0.4-0.1-0.7-0.1-1.1,0c-0.3,0.1-0.6,0.2-0.9,0.5c-0.3,0.2-0.5,0.5-0.7,0.8C41.1,78.4,40.9,78.8,40.8,79.2z"/>
	<path class="st3" d="M36.7,73.2c0.4,0.2,0.7,0.5,1,0.9c0.3,0.3,0.5,0.7,0.6,1.1c0.1,0.4,0.1,0.9,0,1.4s-0.3,1-0.6,1.6
		c-0.3,0.5-0.6,0.9-0.9,1.2s-0.7,0.6-1.1,0.7c-0.4,0.2-0.9,0.2-1.3,0.2c-0.5,0-0.9-0.2-1.4-0.5c-0.5-0.3-0.9-0.6-1.1-1
		c-0.3-0.4-0.4-0.8-0.5-1.2c-0.1-0.4-0.1-0.9,0.1-1.4s0.3-0.9,0.6-1.4c0.3-0.5,0.6-0.9,1-1.2c0.4-0.3,0.8-0.6,1.2-0.7
		c0.4-0.1,0.9-0.2,1.3-0.1S36.3,72.9,36.7,73.2z M32.7,75.3c-0.2,0.4-0.4,0.7-0.5,1.1c-0.1,0.4-0.1,0.7-0.1,1.1s0.1,0.6,0.3,0.9
		c0.2,0.3,0.5,0.5,0.9,0.8c0.4,0.2,0.8,0.3,1.1,0.3c0.4,0,0.7-0.1,1-0.2c0.3-0.2,0.6-0.4,0.9-0.6c0.3-0.3,0.5-0.6,0.7-0.9
		c0.2-0.4,0.4-0.8,0.5-1.2c0.1-0.4,0.1-0.7,0.1-1.1c0-0.3-0.2-0.6-0.4-0.9c-0.2-0.3-0.5-0.5-0.8-0.7c-0.4-0.2-0.7-0.3-1.1-0.3
		c-0.4,0-0.7,0.1-1,0.2c-0.3,0.2-0.6,0.4-0.9,0.6C33.1,74.6,32.9,74.9,32.7,75.3z"/>
	<path class="st3" d="M27.8,67.2l-5.8,2.7l-0.6-0.6l7-3.1l0.6,0.7L25.5,72l0,0l5.6-2.9l0.7,0.8l-3.9,6.5l-0.6-0.6l3.4-5.5l-5.7,2.9
		l-0.6-0.7L27.8,67.2z"/>
	<path class="st3" d="M26.2,62.6l0.3,0.8l-6.6,2.9l-0.3-0.8l0.9-0.4c-0.5-0.2-0.9-0.4-1.2-0.6c-0.3-0.2-0.6-0.6-0.8-1
		c-0.2-0.4-0.3-0.8-0.3-1.2s0.1-0.8,0.3-1.2c0.2-0.3,0.4-0.5,0.6-0.6c0.2-0.1,0.5-0.3,0.8-0.4l4.3-1.9l0.3,0.8l-4.3,1.9
		c-0.6,0.3-1,0.6-1.2,1c-0.2,0.4-0.1,0.9,0.1,1.5c0.1,0.2,0.2,0.4,0.4,0.6c0.2,0.2,0.3,0.3,0.5,0.4c0.2,0.1,0.4,0.2,0.6,0.2
		c0.2,0,0.4,0.1,0.6,0c0.2,0,0.5-0.1,0.7-0.1c0.2-0.1,0.4-0.2,0.7-0.3L26.2,62.6z"/>
	<path class="st3" d="M18.1,47.5c0.3,0,0.7,0.1,1,0.2c0.3,0.1,0.6,0.3,0.8,0.5s0.4,0.5,0.5,0.8c0.1,0.3,0.2,0.6,0.2,1
		c0,0.3-0.1,0.7-0.2,1s-0.3,0.6-0.5,0.8c-0.2,0.2-0.5,0.4-0.8,0.5c-0.3,0.1-0.6,0.2-1,0.2c-0.3,0-0.7-0.1-1-0.2
		c-0.3-0.1-0.6-0.3-0.8-0.5c-0.2-0.2-0.4-0.5-0.5-0.8c-0.1-0.3-0.2-0.6-0.2-1c0-0.3,0.1-0.7,0.2-1c0.1-0.3,0.3-0.6,0.5-0.8
		c0.2-0.2,0.5-0.4,0.8-0.5C17.4,47.5,17.7,47.5,18.1,47.5z"/>
	<path class="st3" d="M22.4,40.5c0.6,0.1,1.1,0.1,1.5-0.1c0.4-0.2,0.7-0.6,0.9-1.2c0.1-0.3,0.2-0.5,0.2-0.8c0-0.2,0-0.4-0.1-0.6
		c-0.1-0.2-0.1-0.3-0.3-0.5c-0.1-0.1-0.3-0.2-0.4-0.3c-0.3-0.1-0.6-0.1-0.9,0c-0.2,0.1-0.5,0.4-0.7,0.6c-0.2,0.3-0.4,0.6-0.7,0.9
		c-0.2,0.3-0.5,0.6-0.7,0.9c-0.3,0.3-0.6,0.5-0.9,0.6c-0.3,0.1-0.7,0.1-1.2-0.1c-0.6-0.2-0.9-0.6-1.1-1.2c-0.2-0.6-0.1-1.2,0.2-2
		c0.3-0.7,0.7-1.2,1.2-1.6c0.5-0.3,1.2-0.4,2-0.1l-0.3,0.8c-0.5-0.1-1-0.1-1.3,0.1c-0.3,0.2-0.6,0.6-0.8,1.1
		c-0.2,0.5-0.3,0.9-0.2,1.3c0.1,0.3,0.3,0.6,0.7,0.7c0.3,0.1,0.6,0.1,0.8,0s0.5-0.4,0.7-0.6c0.2-0.3,0.5-0.6,0.7-0.9
		s0.5-0.6,0.8-0.9c0.3-0.3,0.6-0.4,0.9-0.6c0.3-0.1,0.7-0.1,1.1,0.1c0.3,0.1,0.6,0.3,0.8,0.6c0.2,0.2,0.3,0.5,0.4,0.8
		c0.1,0.3,0.1,0.6,0,1c-0.1,0.4-0.2,0.7-0.3,1.1c-0.2,0.4-0.4,0.7-0.6,1c-0.2,0.3-0.5,0.4-0.8,0.6s-0.6,0.2-0.9,0.2
		c-0.3,0-0.7-0.1-1-0.2L22.4,40.5z"/>
	<path class="st3" d="M26.3,28.5c-0.5-0.2-1-0.3-1.5-0.2c-0.5,0.1-0.9,0.4-1.2,0.8c-0.3,0.3-0.4,0.7-0.5,1c-0.1,0.4,0,0.7,0.1,1
		c0.1,0.3,0.3,0.7,0.5,1c0.2,0.3,0.5,0.6,0.8,0.8c0.3,0.2,0.6,0.4,1,0.6c0.3,0.2,0.7,0.2,1,0.3c0.3,0,0.7,0,1-0.2
		c0.3-0.1,0.6-0.4,0.9-0.7c0.4-0.5,0.6-1,0.5-1.5c0-0.5-0.3-1-0.7-1.4l0.6-0.7c0.3,0.3,0.5,0.6,0.6,1c0.2,0.3,0.3,0.7,0.3,1
		c0,0.3,0,0.7-0.1,1.1s-0.3,0.7-0.6,1.1c-0.4,0.5-0.7,0.8-1.2,1c-0.4,0.2-0.8,0.3-1.3,0.3c-0.4,0-0.9-0.1-1.3-0.3S24.4,34,24,33.7
		c-0.4-0.3-0.7-0.7-1-1.1c-0.3-0.4-0.5-0.8-0.6-1.3c-0.1-0.4-0.1-0.9,0-1.3c0.1-0.5,0.3-0.9,0.6-1.3c0.5-0.7,1.1-1.1,1.7-1.2
		s1.3,0,2.1,0.4L26.3,28.5z"/>
	<path class="st3" d="M32.8,29.3l-0.7,0.5l-4.5-5.7l0.7-0.5l0.9,1.1l0,0c-0.2-0.6-0.2-1.1-0.1-1.5c0.1-0.4,0.5-0.8,0.9-1.2l0.6,0.7
		c-0.4,0.3-0.6,0.6-0.8,0.9s-0.2,0.6-0.2,1c0,0.3,0.1,0.7,0.3,1c0.2,0.3,0.4,0.7,0.6,1L32.8,29.3z"/>
	<path class="st3" d="M38.3,26c-0.4,0.2-0.9,0.3-1.3,0.3c-0.4,0-0.9,0-1.3-0.2c-0.4-0.2-0.8-0.4-1.2-0.8c-0.4-0.3-0.7-0.8-1-1.4
		c-0.2-0.5-0.4-1-0.5-1.4c-0.1-0.5-0.1-0.9,0-1.4c0.1-0.4,0.3-0.8,0.6-1.2c0.3-0.4,0.7-0.7,1.2-0.9c0.5-0.2,1-0.4,1.5-0.4
		c0.5,0,0.9,0.1,1.3,0.3c0.4,0.2,0.8,0.5,1.1,0.8c0.3,0.4,0.6,0.8,0.8,1.3c0.3,0.5,0.4,1,0.5,1.5s0,0.9-0.1,1.4
		c-0.1,0.4-0.3,0.8-0.6,1.2C39.2,25.5,38.8,25.8,38.3,26z M38.9,21.5c-0.2-0.4-0.4-0.7-0.7-1s-0.5-0.5-0.8-0.7
		c-0.3-0.2-0.6-0.2-1-0.3s-0.7,0.1-1.1,0.3c-0.4,0.2-0.7,0.4-0.9,0.7c-0.2,0.3-0.3,0.6-0.4,1s0,0.7,0,1.1c0.1,0.4,0.2,0.7,0.4,1.1
		c0.2,0.4,0.4,0.8,0.7,1c0.3,0.3,0.5,0.5,0.8,0.7c0.3,0.2,0.6,0.2,1,0.2c0.3,0,0.7-0.1,1.1-0.3c0.4-0.2,0.7-0.4,0.9-0.7
		c0.2-0.3,0.3-0.6,0.4-1c0-0.3,0-0.7,0-1.1S39.1,21.8,38.9,21.5z"/>
	<path class="st3" d="M42.9,24.1l-2.5-9.8l0.8-0.2l2.5,9.8L42.9,24.1z"/>
	<path class="st3" d="M46,23.4l-1.3-10l0.8-0.1l1.3,10L46,23.4z"/>
	<path class="st3" d="M60.6,14.5l0.8,0.2l-2.3,9.8l-0.8-0.2l0.3-1.2l0,0c-0.2,0.2-0.4,0.4-0.6,0.5c-0.2,0.1-0.5,0.2-0.7,0.3
		C57,24,56.8,24,56.5,24c-0.3,0-0.5,0-0.7-0.1c-0.6-0.1-1-0.3-1.4-0.6c-0.4-0.3-0.6-0.6-0.8-1c-0.2-0.4-0.3-0.8-0.3-1.3s0-1,0.2-1.5
		c0.1-0.5,0.3-0.9,0.5-1.4c0.2-0.4,0.5-0.8,0.9-1.1s0.7-0.5,1.2-0.6c0.4-0.1,0.9-0.1,1.5,0c0.5,0.1,1,0.3,1.4,0.7
		c0.4,0.3,0.7,0.7,0.9,1.2L60.6,14.5z M59.2,20.8c0.1-0.4,0.1-0.8,0.1-1.2c0-0.4-0.1-0.7-0.3-1.1c-0.1-0.3-0.3-0.6-0.6-0.8
		c-0.3-0.2-0.6-0.4-0.9-0.5c-0.4-0.1-0.8-0.1-1.2,0c-0.3,0.1-0.7,0.3-0.9,0.5c-0.3,0.2-0.5,0.5-0.7,0.9c-0.2,0.4-0.3,0.8-0.4,1.2
		c-0.1,0.4-0.1,0.9-0.1,1.2c0,0.4,0.1,0.7,0.3,1c0.2,0.3,0.4,0.5,0.6,0.7c0.3,0.2,0.6,0.3,0.9,0.4c0.4,0.1,0.7,0.1,1.1,0
		c0.3-0.1,0.6-0.2,0.9-0.5s0.5-0.5,0.7-0.8C58.9,21.6,59.1,21.2,59.2,20.8z"/>
	<path class="st3" d="M63.3,26.8c-0.4-0.2-0.7-0.5-1-0.9c-0.3-0.3-0.5-0.7-0.6-1.1c-0.1-0.4-0.1-0.9,0-1.4c0.1-0.5,0.3-1,0.6-1.6
		c0.3-0.5,0.6-0.9,0.9-1.2c0.4-0.3,0.7-0.6,1.1-0.7c0.4-0.2,0.9-0.2,1.3-0.2c0.5,0,0.9,0.2,1.4,0.5c0.5,0.3,0.9,0.6,1.1,1
		c0.3,0.4,0.4,0.8,0.5,1.2c0.1,0.4,0.1,0.9-0.1,1.4c-0.1,0.5-0.3,0.9-0.6,1.4c-0.3,0.5-0.6,0.9-1,1.2s-0.8,0.6-1.2,0.7
		c-0.4,0.1-0.9,0.2-1.3,0.1C64.2,27.2,63.7,27.1,63.3,26.8z M67.3,24.7c0.2-0.4,0.4-0.7,0.5-1.1c0.1-0.4,0.1-0.7,0.1-1.1
		c0-0.3-0.1-0.6-0.3-0.9s-0.5-0.5-0.9-0.8c-0.4-0.2-0.8-0.3-1.1-0.3c-0.4,0-0.7,0.1-1,0.2c-0.3,0.1-0.6,0.4-0.9,0.6
		c-0.3,0.3-0.5,0.6-0.7,0.9c-0.2,0.4-0.4,0.8-0.5,1.2c-0.1,0.4-0.1,0.7-0.1,1.1c0,0.3,0.2,0.6,0.4,0.9s0.5,0.5,0.8,0.7
		c0.4,0.2,0.7,0.3,1.1,0.3c0.4,0,0.7-0.1,1-0.2c0.3-0.2,0.6-0.4,0.9-0.6C66.9,25.4,67.1,25.1,67.3,24.7z"/>
	<path class="st3" d="M72.2,32.8l5.8-2.7l0.6,0.6l-7,3.1l-0.6-0.7l3.5-5.2l0,0l-5.6,2.9l-0.7-0.8l3.9-6.5l0.6,0.6l-3.4,5.5l5.7-2.9
		l0.6,0.7L72.2,32.8z"/>
	<path class="st3" d="M73.8,37.4l-0.3-0.8l6.6-2.9l0.3,0.8l-0.9,0.4c0.5,0.2,0.9,0.4,1.2,0.6c0.3,0.2,0.6,0.6,0.8,1.1
		c0.2,0.4,0.3,0.8,0.3,1.2s-0.1,0.8-0.3,1.2c-0.2,0.3-0.4,0.5-0.6,0.6c-0.2,0.1-0.5,0.3-0.8,0.4l-4.3,1.9l-0.3-0.8l4.3-1.9
		c0.6-0.3,1-0.6,1.2-1c0.2-0.4,0.1-0.9-0.1-1.5c-0.1-0.2-0.2-0.4-0.4-0.6c-0.2-0.2-0.3-0.3-0.5-0.4s-0.4-0.2-0.6-0.2
		c-0.2,0-0.4-0.1-0.6,0c-0.2,0-0.5,0.1-0.7,0.1c-0.2,0.1-0.4,0.2-0.7,0.3L73.8,37.4z"/>
	<path class="st3" d="M81.9,52.5c-0.3,0-0.7-0.1-1-0.2c-0.3-0.1-0.6-0.3-0.8-0.5c-0.2-0.2-0.4-0.5-0.5-0.8c-0.1-0.3-0.2-0.6-0.2-1
		c0-0.3,0.1-0.7,0.2-1c0.1-0.3,0.3-0.6,0.5-0.8c0.2-0.2,0.5-0.4,0.8-0.5c0.3-0.1,0.6-0.2,1-0.2c0.3,0,0.7,0.1,1,0.2
		c0.3,0.1,0.6,0.3,0.8,0.5c0.2,0.2,0.4,0.5,0.5,0.8c0.1,0.3,0.2,0.6,0.2,1c0,0.3-0.1,0.7-0.2,1c-0.1,0.3-0.3,0.6-0.5,0.8
		c-0.2,0.2-0.5,0.4-0.8,0.5C82.6,52.5,82.3,52.5,81.9,52.5z"/>
</g>
</svg>
