{
  "accessors": [
    {
      "bufferView": 2,
      "componentType": 5126,
      "count": 828,
      "max": [
        10.980009078979492,
        5.958995819091797,
        10.980008125305176
      ],
      "min": [
        -10.980008125305176,
        -7.293154716491699,
        -10.980009078979492
      ],
      "type": "VEC3"
    },
    {
      "bufferView": 2,
      "byteOffset": 9936,
      "componentType": 5126,
      "count": 828,
      "max": [
        1.0,
        0.9854639172554016,
        1.0
      ],
      "min": [
        -1.0,
        -0.98531174659729,
        -1.0
      ],
      "type": "VEC3"
    },
    {
      "bufferView": 1,
      "componentType": 5126,
      "count": 828,
      "max": [
        0.22547093033790588,
        0.649954080581665
      ],
      "min": [
        0.04210367798805237,
        0.30080708861351013
      ],
      "type": "VEC2"
    },
    {
      "bufferView": 0,
      "componentType": 5125,
      "count": 1332,
      "type": "SCALAR"
    },
    {
      "bufferView": 2,
      "byteOffset": 19872,
      "componentType": 5126,
      "count": 672,
      "max": [
        9.981825828552246,
        9.981825828552246,
        9.981826782226563
      ],
      "min": [
        -9.981827735900879,
        -9.981825828552246,
        -9.981825828552246
      ],
      "type": "VEC3"
    },
    {
      "bufferView": 2,
      "byteOffset": 27936,
      "componentType": 5126,
      "count": 672,
      "max": [
        1.0,
        1.0,
        1.0
      ],
      "min": [
        -1.0,
        -1.0,
        -1.0
      ],
      "type": "VEC3"
    },
    {
      "bufferView": 1,
      "byteOffset": 6624,
      "componentType": 5126,
      "count": 672,
      "max": [
        0.9520583152770996,
        0.6467657089233398
      ],
      "min": [
        0.15844079852104187,
        0.3303642272949219
      ],
      "type": "VEC2"
    },
    {
      "bufferView": 0,
      "byteOffset": 5328,
      "componentType": 5125,
      "count": 1788,
      "type": "SCALAR"
    },
    {
      "bufferView": 2,
      "byteOffset": 36000,
      "componentType": 5126,
      "count": 2560,
      "max": [
        9.981825828552246,
        8.581432342529297,
        9.981826782226563
      ],
      "min": [
        -9.981827735900879,
        -8.58143138885498,
        -9.981825828552246
      ],
      "type": "VEC3"
    },
    {
      "bufferView": 2,
      "byteOffset": 66720,
      "componentType": 5126,
      "count": 2560,
      "max": [
        1.0,
        0.9951857924461365,
        1.0
      ],
      "min": [
        -1.0,
        -0.9951862692832947,
        -1.0
      ],
      "type": "VEC3"
    },
    {
      "bufferView": 1,
      "byteOffset": 12000,
      "componentType": 5126,
      "count": 2560,
      "max": [
        0.9478580355644226,
        0.5777420997619629
      ],
      "min": [
        0.6690919399261475,
        0.40056777000427246
      ],
      "type": "VEC2"
    },
    {
      "bufferView": 0,
      "byteOffset": 12480,
      "componentType": 5125,
      "count": 4512,
      "type": "SCALAR"
    }
  ],
  "asset": {
    "extras": {
      "author": "Ahmed bouraoui (https://sketchfab.com/Anecx)",
      "license": "CC-BY-4.0 (http://creativecommons.org/licenses/by/4.0/)",
      "source": "https://sketchfab.com/3d-models/mario-coin-block-free-8da1ec3b23b140cda619b6c4b5f6c8a2",
      "title": "Mario Coin block - free"
    },
    "generator": "Sketchfab-12.65.0",
    "version": "2.0"
  },
  "bufferViews": [
    {
      "buffer": 0,
      "byteLength": 30528,
      "name": "floatBufferViews",
      "target": 34963
    },
    {
      "buffer": 0,
      "byteLength": 32480,
      "byteOffset": 30528,
      "byteStride": 8,
      "name": "floatBufferViews",
      "target": 34962
    },
    {
      "buffer": 0,
      "byteLength": 97440,
      "byteOffset": 63008,
      "byteStride": 12,
      "name": "floatBufferViews",
      "target": 34962
    }
  ],
  "buffers": [
    {
      "byteLength": 160448,
      "uri": "scene.bin"
    }
  ],
  "materials": [
    {
      "doubleSided": true,
      "name": "material",
      "pbrMetallicRoughness": {
        "baseColorFactor": [
          0.8,
          0.8,
          0.8,
          1.0
        ],
        "metallicFactor": 0.0,
        "roughnessFactor": 0.8211145618000169
      }
    },
    {
      "doubleSided": true,
      "name": "cube",
      "pbrMetallicRoughness": {
        "baseColorFactor": [
          1.0,
          0.983135,
          0.249064,
          1.0
        ],
        "metallicFactor": 0.0,
        "roughnessFactor": 0.7047316291794937
      }
    },
    {
      "doubleSided": true,
      "name": "Material.003",
      "pbrMetallicRoughness": {
        "baseColorFactor": [
          1.0,
          0.8170150720620829,
          0.0,
          1.0
        ],
        "metallicFactor": 0.0
      }
    }
  ],
  "meshes": [
    {
      "name": "1.003_?_0",
      "primitives": [
        {
          "attributes": {
            "NORMAL": 1,
            "POSITION": 0,
            "TEXCOORD_0": 2
          },
          "indices": 3,
          "material": 0,
          "mode": 4
        }
      ]
    },
    {
      "name": "1.003_cube_0",
      "primitives": [
        {
          "attributes": {
            "NORMAL": 5,
            "POSITION": 4,
            "TEXCOORD_0": 6
          },
          "indices": 7,
          "material": 1,
          "mode": 4
        }
      ]
    },
    {
      "name": "1.003_Material.003_0",
      "primitives": [
        {
          "attributes": {
            "NORMAL": 9,
            "POSITION": 8,
            "TEXCOORD_0": 10
          },
          "indices": 11,
          "material": 2,
          "mode": 4
        }
      ]
    }
  ],
  "nodes": [
    {
      "children": [
        1
      ],
      "matrix": [
        1.0,
        0.0,
        0.0,
        0.0,
        0.0,
        2.220446049250313e-16,
        -1.0,
        0.0,
        0.0,
        1.0,
        2.220446049250313e-16,
        0.0,
        0.0,
        0.0,
        0.0,
        1.0
      ],
      "name": "Sketchfab_model"
    },
    {
      "children": [
        2
      ],
      "matrix": [
        1.0,
        0.0,
        0.0,
        0.0,
        0.0,
        0.0,
        1.0,
        0.0,
        0.0,
        -1.0,
        0.0,
        0.0,
        0.0,
        0.0,
        0.0,
        1.0
      ],
      "name": "d599060a4fd04c29896d07d712af7c75.fbx"
    },
    {
      "children": [
        3,
        7,
        9
      ],
      "name": "RootNode"
    },
    {
      "children": [
        4,
        5,
        6
      ],
      "matrix": [
        -5.002233353449273,
        2.112737328637786,
        9.208699460760823,
        0.0,
        -0.11338325760773466,
        10.405575957485599,
        -2.4489254275674495,
        0.0,
        -9.447271197915564,
        -1.243557140526858,
        -4.846519933067877,
        0.0,
        0.0,
        0.0,
        0.0,
        1.0
      ],
      "name": "1.003"
    },
    {
      "mesh": 0,
      "name": "1.003_?_0"
    },
    {
      "mesh": 1,
      "name": "1.003_cube_0"
    },
    {
      "mesh": 2,
      "name": "1.003_Material.003_0"
    },
    {
      "children": [
        8
      ],
      "matrix": [
        17.655176232436144,
        -26.321514295989566,
        -94.84446550731171,
        0.0,
        4.816830663349244,
        96.47371603264479,
        -25.877021799527768,
        0.0,
        98.31120431854266,
        0.00013650536665743562,
        18.300467355210525,
        0.0,
        -55.72698211669922,
        79.70062255859375,
        311.240478515625,
        1.0
      ],
      "name": "Camera"
    },
    {
      "name": "Object_8"
    },
    {
      "children": [
        10
      ],
      "matrix": [
        -10.016147480319376,
        55.196443859560546,
        -20.497436823370943,
        0.0,
        -6.760663161628426,
        19.576248442500763,
        56.019448057022835,
        0.0,
        58.49004832454375,
        11.714884791774706,
        2.9650063617456683,
        0.0,
        -262.48040771484375,
        381.6170349121094,
        783.9168701171875,
        1.0
      ],
      "name": "Spot.001"
    },
    {
      "children": [
        11
      ],
      "matrix": [
        1.0,
        0.0,
        0.0,
        0.0,
        0.0,
        2.220446049250313e-16,
        1.0,
        0.0,
        0.0,
        -1.0,
        2.220446049250313e-16,
        0.0,
        0.0,
        0.0,
        0.0,
        1.0
      ],
      "name": "Object_10"
    },
    {
      "name": "Object_11"
    }
  ],
  "scene": 0,
  "scenes": [
    {
      "name": "Sketchfab_Scene",
      "nodes": [
        0
      ]
    }
  ]
}
